Evidence 2011 DVDRIP XViD AC3-26K

Imdb: 
http://www.imdb.com/title/tt1640218/

Plot:
Ryan is making a documentary on his friend, Brett, about camping for the first time. However, once 

they begin camping, they discover that there is a mysterious figure that is hunting them.

Sources:
DVDR THNXS!! 

Notes:
the dvdr it self had ac3 2.0 as the audioo no 6 channels.... with that video quality is great.. so 

enjoy!

Greetz:
Xtreme 

Encode|FYA|ILLUMANTI|CM8|RX|VISION|HDSCENE|NIGHTMAREZ|xTriLL|DTRG|CRYS|REMIXHD|BIDA|RX|REFILL|INSPiRAL

|SIC|ZOMBIESZ|HOPE|Anonymous|GooN
To all the people who have helped me :P you know who you are

Anything to offer email us @: 26k@hushmail.me

Video
ID : 0
Format : MPEG-4 Visual
Format profile : Advanced Simple@L5
Format settings, BVOP : 2
Format settings, QPel : No
Format settings, GMC : No warppoints
Format settings, Matrix : Default (H.263)
Muxing mode : Packed bitstream
Codec ID : XVID
Codec ID/Hint : XviD
Duration : 1h 18mn
Bit rate : 2 902 Kbps
Width : 720 pixels
Height : 400 pixels
Display aspect ratio : 16:9
Frame rate : 23.976 fps
Color space : YUV
Chroma subsampling : 4:2:0
Bit depth : 8 bits
Scan type : Progressive
Compression mode : Lossy
Bits/(Pixel*Frame) : 0.420
Stream size : 1.59 GiB (94%)
Writing library : XviD 64

Audio
ID : 1
Format : AC-3
Format/Info : Audio Coding 3
Mode extension : CM (complete main)
Codec ID : 2000
Duration : 1h 18mn
Bit rate mode : Constant
Bit rate : 192 Kbps
Channel(s) : 2 channels
Channel positions : Front: L R
Sampling rate : 44.1 KHz
Bit depth : 16 bits
Compression mode : Lossy
Stream size : 108 MiB (6%)
Alignment : Aligned on interleaves
Interleave, duration : 70 ms (1.67 video frames)
Interleave, preload duration : 208 ms
Title : Title 06
